<svg xmlns="http://www.w3.org/2000/svg" width="20" height="18"><path d="M4.123 17.815c-.058-.472-.034-2.003.054-3.404.092-1.46-.716-3.338-1.894-4.405-2.718-2.459-2.593-3.548.406-3.548 2.428 0 3.19-.565 6.074-4.5l1.466-2 1.466 2c2.884 3.935 3.646 4.5 6.073 4.5 3 0 3.124 1.09.407 3.548-1.398 1.265-1.96 2.833-1.76 4.905.249 2.567-.018 2.99-1.695 2.69-3.528-.632-6.947-.52-8.741.285-.963.432-1.798.4-1.856-.071zm9.106-5.407c0-.853.54-2.09 1.2-2.75.849-.85.87-1.2.071-1.2-.62 0-1.835-.708-2.7-1.572-1.428-1.428-1.714-1.428-3.143 0-.864.864-2.079 1.572-2.7 1.572-.798 0-.777.35.072 1.2.66.66 1.2 1.897 1.2 2.75 0 1.055.957 1.55 3 1.55s3-.495 3-1.55z"/></svg>