<svg xmlns="http://www.w3.org/2000/svg" width="19" height="16"><path d="M.5 14.82c-.294-.768-.4-4.273-.234-7.79L.568.636 8.25.345l7.684-.291 1.63 3.433c.961 2.027 1.5 5.218 1.316 7.79l-.313 4.359-8.767.289C3.026 16.148.914 15.897.5 14.819zm16.321-1.434c.242-.733-.45-1.25-1.67-1.25-2.694 0-2.762-3.01-.083-3.71 1.1-.288 2-1.146 2-1.907 0-1.055-1.781-1.383-7.5-1.383h-7.5v4.333c0 2.383.318 4.652.707 5.04 1.229 1.23 13.596.24 14.046-1.123zm.247-3.25c0-.55-.45-1-1-1s-1 .45-1 1 .45 1 1 1 1-.45 1-1zm-1.25-7.25c-.275-.825-2.572-1.25-6.75-1.25s-6.475.425-6.75 1.25c-.308.922 1.46 1.25 6.75 1.25 5.289 0 7.057-.328 6.75-1.25z"/></svg>